<svg width="25" height="24" viewBox="0 0 25 24" fill="none" xmlns="http://www.w3.org/2000/svg">
<path d="M9.6071 5.448C10.2051 3.698 12.6231 3.645 13.3321 5.289L13.3921 5.449L14.1991 7.809C14.384 8.35023 14.6829 8.84551 15.0755 9.26142C15.4682 9.67734 15.9454 10.0042 16.4751 10.22L16.6921 10.301L19.0521 11.107C20.8021 11.705 20.8551 14.123 19.2121 14.832L19.0521 14.892L16.6921 15.699C16.1507 15.8838 15.6552 16.1826 15.2391 16.5753C14.823 16.9679 14.496 17.4452 14.2801 17.975L14.1991 18.191L13.3931 20.552C12.7951 22.302 10.3771 22.355 9.6691 20.712L9.6071 20.552L8.8011 18.192C8.61628 17.6506 8.31748 17.1551 7.92485 16.739C7.53222 16.3229 7.0549 15.9959 6.5251 15.78L6.3091 15.699L3.9491 14.893C2.1981 14.295 2.1451 11.877 3.7891 11.169L3.9491 11.107L6.3091 10.301C6.85034 10.1161 7.34562 9.81719 7.76153 9.42457C8.17744 9.03195 8.50432 8.55469 8.7201 8.025L8.8011 7.809L9.6071 5.448ZM11.5001 6.094L10.6941 8.454C10.4125 9.2793 9.95437 10.0333 9.35164 10.6635C8.74891 11.2937 8.01605 11.7849 7.2041 12.103L6.9541 12.194L4.5941 13L6.9541 13.806C7.77941 14.0876 8.53341 14.5457 9.1636 15.1485C9.79379 15.7512 10.285 16.4841 10.6031 17.296L10.6941 17.546L11.5001 19.906L12.3061 17.546C12.5877 16.7207 13.0458 15.9667 13.6486 15.3365C14.2513 14.7063 14.9842 14.2151 15.7961 13.897L16.0461 13.807L18.4061 13L16.0461 12.194C15.2208 11.9124 14.4668 11.4543 13.8366 10.8515C13.2064 10.2488 12.7152 9.51595 12.3971 8.704L12.3071 8.454L11.5001 6.094ZM19.5001 2C19.6872 2 19.8705 2.05248 20.0293 2.15147C20.188 2.25046 20.3158 2.392 20.3981 2.56L20.4461 2.677L20.7961 3.703L21.8231 4.053C22.0106 4.1167 22.1749 4.23462 22.2953 4.39182C22.4157 4.54902 22.4867 4.73842 22.4994 4.93602C22.512 5.13362 22.4657 5.33053 22.3663 5.50179C22.2669 5.67304 22.1189 5.81094 21.9411 5.898L21.8231 5.946L20.7971 6.296L20.4471 7.323C20.3833 7.51043 20.2653 7.6747 20.108 7.79499C19.9508 7.91529 19.7613 7.98619 19.5637 7.99872C19.3661 8.01125 19.1693 7.96484 18.9981 7.86538C18.8269 7.76591 18.6891 7.61787 18.6021 7.44L18.5541 7.323L18.2041 6.297L17.1771 5.947C16.9896 5.8833 16.8253 5.76538 16.7049 5.60819C16.5845 5.45099 16.5135 5.26158 16.5008 5.06398C16.4882 4.86638 16.5345 4.66947 16.6339 4.49821C16.7333 4.32696 16.8813 4.18906 17.0591 4.102L17.1771 4.054L18.2031 3.704L18.5531 2.677C18.6205 2.47943 18.7481 2.30791 18.9179 2.1865C19.0878 2.06509 19.2913 1.99987 19.5001 2Z" fill="white"/>
</svg>
