<svg width="12" height="12" viewBox="0 0 12 12" fill="none" xmlns="http://www.w3.org/2000/svg">
<g clip-path="url(#clip0_120_779)">
<path d="M4.242 6.546C4.56344 6.546 4.87172 6.67369 5.09901 6.90099C5.32631 7.12828 5.454 7.43656 5.454 7.758V10.788C5.454 11.1094 5.32631 11.4177 5.09901 11.645C4.87172 11.8723 4.56344 12 4.242 12H1.212C0.890558 12 0.582281 11.8723 0.354987 11.645C0.127692 11.4177 0 11.1094 0 10.788V7.758C0 7.43656 0.127692 7.12828 0.354987 6.90099C0.582281 6.67369 0.890558 6.546 1.212 6.546H4.242ZM10.788 6.546C11.1094 6.546 11.4177 6.67369 11.645 6.90099C11.8723 7.12828 12 7.43656 12 7.758V10.788C12 11.1094 11.8723 11.4177 11.645 11.645C11.4177 11.8723 11.1094 12 10.788 12H7.758C7.43656 12 7.12828 11.8723 6.90099 11.645C6.67369 11.4177 6.546 11.1094 6.546 10.788V7.758C6.546 7.43656 6.67369 7.12828 6.90099 6.90099C7.12828 6.67369 7.43656 6.546 7.758 6.546H10.788ZM4.242 0C4.56344 0 4.87172 0.127692 5.09901 0.354987C5.32631 0.582281 5.454 0.890558 5.454 1.212V4.242C5.454 4.56344 5.32631 4.87172 5.09901 5.09901C4.87172 5.32631 4.56344 5.454 4.242 5.454H1.212C0.890558 5.454 0.582281 5.32631 0.354987 5.09901C0.127692 4.87172 0 4.56344 0 4.242V1.212C0 0.890558 0.127692 0.582281 0.354987 0.354987C0.582281 0.127692 0.890558 0 1.212 0L4.242 0ZM10.788 0C11.1094 0 11.4177 0.127692 11.645 0.354987C11.8723 0.582281 12 0.890558 12 1.212V4.242C12 4.56344 11.8723 4.87172 11.645 5.09901C11.4177 5.32631 11.1094 5.454 10.788 5.454H7.758C7.43656 5.454 7.12828 5.32631 6.90099 5.09901C6.67369 4.87172 6.546 4.56344 6.546 4.242V1.212C6.546 0.890558 6.67369 0.582281 6.90099 0.354987C7.12828 0.127692 7.43656 0 7.758 0L10.788 0Z" fill="#ADB1B8"/>
</g>
<defs>
<clipPath id="clip0_120_779">
<rect width="12" height="12" fill="white"/>
</clipPath>
</defs>
</svg>
