<svg width="16" height="16" viewBox="0 0 16 16" fill="none" xmlns="http://www.w3.org/2000/svg">
<path d="M2.66699 13.3334V11.4667C2.66699 11.089 2.76433 10.7419 2.95899 10.4254C3.15366 10.109 3.41188 9.86719 3.73366 9.70008C4.42255 9.35564 5.12255 9.09741 5.83366 8.92541C6.54477 8.75341 7.26699 8.66719 8.00033 8.66675C8.41144 8.66675 8.81699 8.69186 9.21699 8.74208C9.61699 8.7923 10.017 8.87275 10.417 8.98341L9.30032 10.1167C9.0781 10.0834 8.86144 10.0556 8.65033 10.0334C8.43921 10.0112 8.22255 10.0001 8.00033 10.0001C7.3781 10.0001 6.76144 10.0752 6.15033 10.2254C5.53921 10.3756 4.93366 10.6005 4.33366 10.9001C4.23366 10.9556 4.15299 11.0334 4.09166 11.1334C4.03033 11.2334 3.99988 11.3445 4.00033 11.4667V12.0001H8.00033V13.3334H2.66699ZM9.33366 14.0001V11.9501L13.017 8.28341C13.117 8.18341 13.2281 8.11119 13.3503 8.06675C13.4725 8.0223 13.5948 8.00008 13.717 8.00008C13.8503 8.00008 13.9781 8.02519 14.1003 8.07541C14.2225 8.12564 14.3337 8.20053 14.4337 8.30008L15.0503 8.91675C15.1392 9.01675 15.2088 9.12786 15.259 9.25008C15.3092 9.3723 15.3341 9.49453 15.3337 9.61675C15.3332 9.73897 15.311 9.86408 15.267 9.99208C15.223 10.1201 15.1508 10.2339 15.0503 10.3334L11.3837 14.0001H9.33366ZM10.3337 13.0001H10.967L12.9837 10.9667L12.6837 10.6501L12.367 10.3501L10.3337 12.3667V13.0001ZM12.6837 10.6501L12.367 10.3501L12.9837 10.9667L12.6837 10.6501ZM8.00033 8.00008C7.26699 8.00008 6.63921 7.73897 6.11699 7.21675C5.59477 6.69453 5.33366 6.06675 5.33366 5.33341C5.33366 4.60008 5.59477 3.9723 6.11699 3.45008C6.63921 2.92786 7.26699 2.66675 8.00033 2.66675C8.73366 2.66675 9.36144 2.92786 9.88366 3.45008C10.4059 3.9723 10.667 4.60008 10.667 5.33341C10.667 6.06675 10.4059 6.69453 9.88366 7.21675C9.36144 7.73897 8.73366 8.00008 8.00033 8.00008ZM8.00033 6.66675C8.36699 6.66675 8.68099 6.5363 8.94233 6.27541C9.20366 6.01453 9.3341 5.70053 9.33366 5.33341C9.33321 4.9663 9.20277 4.65253 8.94233 4.39208C8.68188 4.13164 8.36788 4.00097 8.00033 4.00008C7.63277 3.99919 7.31899 4.12986 7.05899 4.39208C6.79899 4.6543 6.66833 4.96808 6.66699 5.33341C6.66566 5.69875 6.79633 6.01275 7.05899 6.27541C7.32166 6.53808 7.63544 6.66853 8.00033 6.66675Z" fill="#ADB1B8"/>
</svg>
