<svg width="50" height="52" viewBox="0 0 50 52" fill="none" xmlns="http://www.w3.org/2000/svg">
<g filter="url(#filter0_d_40_24)">
<rect y="2" width="50" height="50" rx="12" fill="url(#paint0_linear_40_24)"/>
<path d="M22.9327 31.6668C23.466 32.2002 24.1549 32.4615 24.9993 32.4508C25.8438 32.4402 26.466 32.1344 26.866 31.5335L32.4993 23.1002C32.6993 22.789 32.6718 22.5055 32.4167 22.2495C32.1616 21.9935 31.878 21.9659 31.566 22.1668L23.1327 27.8002C22.5327 28.2002 22.2162 28.8113 22.1833 29.6335C22.1505 30.4557 22.4002 31.1335 22.9327 31.6668ZM24.9993 16.3335C25.7993 16.3335 26.5882 16.4002 27.366 16.5335C28.1438 16.6668 28.8993 16.8779 29.6327 17.1668C29.9882 17.3002 30.366 17.5504 30.766 17.9175C31.166 18.2846 31.2771 18.6344 31.0993 18.9668C30.9216 19.2993 30.5216 19.5215 29.8993 19.6335C29.2771 19.7455 28.7771 19.7344 28.3993 19.6002C27.8438 19.4002 27.2829 19.2504 26.7167 19.1508C26.1505 19.0513 25.578 19.0011 24.9993 19.0002C22.0438 19.0002 19.5269 20.0393 17.4487 22.1175C15.3705 24.1957 14.3318 26.7122 14.3327 29.6668C14.3327 30.6002 14.4607 31.5224 14.7167 32.4335C14.9727 33.3446 15.3336 34.2002 15.7993 35.0002H34.1993C34.7105 34.1557 35.0829 33.2779 35.3167 32.3668C35.5505 31.4557 35.6669 30.5113 35.666 29.5335C35.666 28.9557 35.6158 28.389 35.5153 27.8335C35.4149 27.2779 35.2651 26.7335 35.066 26.2002C34.9327 25.8224 34.9105 25.4557 34.9993 25.1002C35.0882 24.7446 35.2882 24.4446 35.5993 24.2002C35.8882 23.9779 36.2051 23.9113 36.55 24.0002C36.8949 24.089 37.1336 24.289 37.266 24.6002C37.5993 25.3779 37.8549 26.1726 38.0327 26.9842C38.2105 27.7957 38.3105 28.6233 38.3327 29.4668C38.3549 30.7335 38.2105 31.9446 37.8993 33.1002C37.5882 34.2557 37.1327 35.3557 36.5327 36.4002C36.2882 36.8002 35.9549 37.1113 35.5327 37.3335C35.1105 37.5557 34.666 37.6668 34.1993 37.6668H15.7993C15.3327 37.6668 14.8882 37.5557 14.466 37.3335C14.0438 37.1113 13.7105 36.8002 13.466 36.4002C12.8882 35.4002 12.4438 34.3393 12.1327 33.2175C11.8216 32.0957 11.666 30.9122 11.666 29.6668C11.666 27.8224 12.0162 26.0948 12.7167 24.4842C13.4171 22.8735 14.3727 21.4624 15.5833 20.2508C16.794 19.0393 18.2105 18.0837 19.8327 17.3842C21.4549 16.6846 23.1771 16.3344 24.9993 16.3335Z" fill="white"/>
</g>
<defs>
<filter id="filter0_d_40_24" x="0" y="0" width="50" height="52" filterUnits="userSpaceOnUse" color-interpolation-filters="sRGB">
<feFlood flood-opacity="0" result="BackgroundImageFix"/>
<feColorMatrix in="SourceAlpha" type="matrix" values="0 0 0 0 0 0 0 0 0 0 0 0 0 0 0 0 0 0 127 0" result="hardAlpha"/>
<feOffset dy="-2"/>
<feComposite in2="hardAlpha" operator="out"/>
<feColorMatrix type="matrix" values="0 0 0 0 0.3175 0 0 0 0 0.3175 0 0 0 0 0.3175 0 0 0 1 0"/>
<feBlend mode="normal" in2="BackgroundImageFix" result="effect1_dropShadow_40_24"/>
<feBlend mode="normal" in="SourceGraphic" in2="effect1_dropShadow_40_24" result="shape"/>
</filter>
<linearGradient id="paint0_linear_40_24" x1="25" y1="52" x2="25" y2="2" gradientUnits="userSpaceOnUse">
<stop stop-color="#1F1F1F"/>
<stop offset="1" stop-color="#353535"/>
</linearGradient>
</defs>
</svg>
