<svg width="16" height="16" viewBox="0 0 16 16" fill="none" xmlns="http://www.w3.org/2000/svg">
<path d="M3.73333 13.2798L4.74933 12.4672L4.756 12.4618C4.968 12.2918 5.07533 12.2065 5.19467 12.1458C5.30178 12.0912 5.41467 12.0516 5.53333 12.0272C5.666 11.9998 5.804 11.9998 6.08133 11.9998H11.8687C12.614 11.9998 12.9873 11.9998 13.272 11.8545C13.5229 11.7267 13.7268 11.5227 13.8547 11.2718C14 10.9865 14 10.6132 14 9.86917V4.79784C14 4.0525 14 3.67917 13.8547 3.3945C13.7267 3.14353 13.5225 2.93955 13.2713 2.81184C12.9867 2.6665 12.6133 2.6665 11.8667 2.6665H4.13333C3.38667 2.6665 3.01333 2.6665 2.728 2.81184C2.47713 2.93967 2.27316 3.14363 2.14533 3.3945C2 3.67984 2 4.05317 2 4.79984V12.4472C2 13.1578 2 13.5132 2.14533 13.6952C2.20783 13.7736 2.28722 13.837 2.3776 13.8805C2.46799 13.924 2.56702 13.9466 2.66733 13.9465C2.90067 13.9465 3.178 13.7238 3.73333 13.2798Z" stroke="#484848" stroke-width="2" stroke-linecap="round" stroke-linejoin="round"/>
</svg>
