<svg width="16" height="16" viewBox="0 0 16 16" fill="none" xmlns="http://www.w3.org/2000/svg">
<path d="M8.00033 2.66675C8.70757 2.66675 9.38585 2.9477 9.88594 3.4478C10.386 3.94789 10.667 4.62617 10.667 5.33341C10.667 6.04066 10.386 6.71894 9.88594 7.21903C9.38585 7.71913 8.70757 8.00008 8.00033 8.00008C7.29308 8.00008 6.6148 7.71913 6.11471 7.21903C5.61461 6.71894 5.33366 6.04066 5.33366 5.33341C5.33366 4.62617 5.61461 3.94789 6.11471 3.4478C6.6148 2.9477 7.29308 2.66675 8.00033 2.66675ZM8.00033 4.00008C7.6467 4.00008 7.30757 4.14056 7.05752 4.39061C6.80747 4.64065 6.66699 4.97979 6.66699 5.33341C6.66699 5.68704 6.80747 6.02618 7.05752 6.27622C7.30757 6.52627 7.6467 6.66675 8.00033 6.66675C8.35395 6.66675 8.69309 6.52627 8.94313 6.27622C9.19318 6.02618 9.33366 5.68704 9.33366 5.33341C9.33366 4.97979 9.19318 4.64065 8.94313 4.39061C8.69309 4.14056 8.35395 4.00008 8.00033 4.00008ZM8.00033 8.66675C9.78033 8.66675 13.3337 9.55341 13.3337 11.3334V13.3334H2.66699V11.3334C2.66699 9.55341 6.22033 8.66675 8.00033 8.66675ZM8.00033 9.93341C6.02033 9.93341 3.93366 10.9067 3.93366 11.3334V12.0667H12.067V11.3334C12.067 10.9067 9.98033 9.93341 8.00033 9.93341Z" fill="#ADB1B8"/>
</svg>
