<svg width="33" height="32" viewBox="0 0 33 32" fill="none" xmlns="http://www.w3.org/2000/svg">
<path d="M16.5003 2.66699C14.7494 2.66699 13.0156 3.01187 11.3979 3.68193C9.78021 4.35199 8.31035 5.33412 7.07224 6.57223C4.57175 9.07272 3.16699 12.4641 3.16699 16.0003C3.16699 21.8937 6.99366 26.8937 12.287 28.667C12.9537 28.7737 13.167 28.3603 13.167 28.0003V25.747C9.47366 26.547 8.68699 23.9603 8.68699 23.9603C8.07366 22.4137 7.20699 22.0003 7.20699 22.0003C5.99366 21.1737 7.30033 21.2003 7.30033 21.2003C8.63366 21.2937 9.34033 22.5737 9.34033 22.5737C10.5003 24.6003 12.4603 24.0003 13.2203 23.6803C13.3403 22.8137 13.687 22.227 14.0603 21.8937C11.1003 21.5603 7.99366 20.4137 7.99366 15.3337C7.99366 13.8537 8.50033 12.667 9.36699 11.7203C9.23366 11.387 8.76699 10.0003 9.50033 8.20032C9.50033 8.20032 10.6203 7.84032 13.167 9.56032C14.2203 9.26699 15.367 9.12032 16.5003 9.12032C17.6337 9.12032 18.7803 9.26699 19.8337 9.56032C22.3803 7.84032 23.5003 8.20032 23.5003 8.20032C24.2337 10.0003 23.767 11.387 23.6337 11.7203C24.5003 12.667 25.007 13.8537 25.007 15.3337C25.007 20.427 21.887 21.547 18.9137 21.8803C19.3937 22.2937 19.8337 23.107 19.8337 24.347V28.0003C19.8337 28.3603 20.047 28.787 20.727 28.667C26.0203 26.8803 29.8337 21.8937 29.8337 16.0003C29.8337 14.2494 29.4888 12.5156 28.8187 10.8979C28.1487 9.2802 27.1665 7.81035 25.9284 6.57223C24.6903 5.33412 23.2205 4.35199 21.6028 3.68193C19.9851 3.01187 18.2513 2.66699 16.5003 2.66699Z" fill="white"/>
</svg>
