<svg width="16" height="16" viewBox="0 0 16 16" fill="none" xmlns="http://www.w3.org/2000/svg">
<path d="M7.99967 1.33325C7.1242 1.33325 6.25729 1.50569 5.44845 1.84072C4.63961 2.17575 3.90469 2.66682 3.28563 3.28587C2.03539 4.53612 1.33301 6.23181 1.33301 7.99992C1.33301 10.9466 3.24634 13.4466 5.89301 14.3333C6.22634 14.3866 6.33301 14.1799 6.33301 13.9999V12.8733C4.48634 13.2733 4.09301 11.9799 4.09301 11.9799C3.78634 11.2066 3.35301 10.9999 3.35301 10.9999C2.74634 10.5866 3.39967 10.5999 3.39967 10.5999C4.06634 10.6466 4.41967 11.2866 4.41967 11.2866C4.99967 12.2999 5.97967 11.9999 6.35967 11.8399C6.41967 11.4066 6.59301 11.1133 6.77967 10.9466C5.29967 10.7799 3.74634 10.2066 3.74634 7.66659C3.74634 6.92659 3.99967 6.33325 4.43301 5.85992C4.36634 5.69325 4.13301 4.99992 4.49967 4.09992C4.49967 4.09992 5.05967 3.91992 6.33301 4.77992C6.85967 4.63325 7.43301 4.55992 7.99967 4.55992C8.56634 4.55992 9.13967 4.63325 9.66634 4.77992C10.9397 3.91992 11.4997 4.09992 11.4997 4.09992C11.8663 4.99992 11.633 5.69325 11.5663 5.85992C11.9997 6.33325 12.253 6.92659 12.253 7.66659C12.253 10.2133 10.693 10.7733 9.20634 10.9399C9.44634 11.1466 9.66634 11.5533 9.66634 12.1733V13.9999C9.66634 14.1799 9.77301 14.3933 10.113 14.3333C12.7597 13.4399 14.6663 10.9466 14.6663 7.99992C14.6663 7.12444 14.4939 6.25753 14.1589 5.4487C13.8238 4.63986 13.3328 3.90493 12.7137 3.28587C12.0947 2.66682 11.3597 2.17575 10.5509 1.84072C9.74206 1.50569 8.87515 1.33325 7.99967 1.33325Z" fill="#ADB1B8"/>
</svg>
