<svg width="19" height="18" viewBox="0 0 19 18" fill="none" xmlns="http://www.w3.org/2000/svg">
<path d="M7.25 15.75C6 15.75 4.9375 15.3125 4.0625 14.4375C3.1875 13.5625 2.75 12.5 2.75 11.25V6.75C2.75 5.5 3.1875 4.4375 4.0625 3.5625C4.9375 2.6875 6 2.25 7.25 2.25H11.75C13 2.25 14.0625 2.6875 14.9375 3.5625C15.8125 4.4375 16.25 5.5 16.25 6.75V11.25C16.25 12.5 15.8125 13.5625 14.9375 14.4375C14.0625 15.3125 13 15.75 11.75 15.75H7.25ZM8.75 12L13.25 7.5L12.2 6.45L8.75 9.9L7.1 8.25L6.05 9.3L8.75 12ZM7.25 14.25H11.75C12.575 14.25 13.2813 13.9563 13.8688 13.3688C14.4563 12.7813 14.75 12.075 14.75 11.25V6.75C14.75 5.925 14.4563 5.21875 13.8688 4.63125C13.2813 4.04375 12.575 3.75 11.75 3.75H7.25C6.425 3.75 5.71875 4.04375 5.13125 4.63125C4.54375 5.21875 4.25 5.925 4.25 6.75V11.25C4.25 12.075 4.54375 12.7813 5.13125 13.3688C5.71875 13.9563 6.425 14.25 7.25 14.25Z" fill="#ADB1B8"/>
</svg>
