<svg width="13" height="12" viewBox="0 0 13 12" fill="none" xmlns="http://www.w3.org/2000/svg">
<path d="M10.75 2H2.25C1.83579 2 1.5 2.33579 1.5 2.75V9.25C1.5 9.66421 1.83579 10 2.25 10H10.75C11.1642 10 11.5 9.66421 11.5 9.25V2.75C11.5 2.33579 11.1642 2 10.75 2Z" stroke="#5275DF" stroke-linejoin="round"/>
<path d="M1.5 2.75C1.5 2.55109 1.57902 2.36032 1.71967 2.21967C1.86032 2.07902 2.05109 2 2.25 2H10.75C10.9489 2 11.1397 2.07902 11.2803 2.21967C11.421 2.36032 11.5 2.55109 11.5 2.75V5H1.5V2.75Z" stroke="#5275DF"/>
<path d="M2.5 3.5C2.5 3.22386 2.72386 3 3 3C3.27614 3 3.5 3.22386 3.5 3.5C3.5 3.77614 3.27614 4 3 4C2.72386 4 2.5 3.77614 2.5 3.5Z" fill="#5275DF"/>
<path d="M4 3.5C4 3.22386 4.22386 3 4.5 3C4.77614 3 5 3.22386 5 3.5C5 3.77614 4.77614 4 4.5 4C4.22386 4 4 3.77614 4 3.5Z" fill="#5275DF"/>
</svg>
