<svg width="19" height="18" viewBox="0 0 19 18" fill="none" xmlns="http://www.w3.org/2000/svg">
<path d="M10.2496 1.52246V3.03746C13.5421 3.44246 15.8746 6.43496 15.4696 9.72746C15.1246 12.4575 12.9796 14.625 10.2496 14.9475V16.4475C14.3746 16.035 17.3746 12.375 16.9621 8.24996C16.6246 4.68746 13.7971 1.87496 10.2496 1.52246ZM8.74961 1.54496C7.28711 1.68746 5.89211 2.24996 4.75211 3.19496L5.82461 4.30496C6.66461 3.62996 7.67711 3.19496 8.74961 3.04496V1.54496ZM3.69461 4.25246C2.75744 5.39082 2.18043 6.78244 2.03711 8.24996H3.53711C3.67961 7.18496 4.09961 6.17246 4.76711 5.32496L3.69461 4.25246ZM12.1246 6.37496L8.46461 10.035L6.87461 8.44496L6.07961 9.23996L8.46461 11.625L12.9196 7.16996L12.1246 6.37496ZM2.04461 9.74996C2.19461 11.22 2.77211 12.6075 3.70211 13.7475L4.76711 12.675C4.10474 11.8272 3.6825 10.8169 3.54461 9.74996H2.04461ZM5.82461 13.7775L4.75211 14.805C5.88833 15.7518 7.27913 16.3415 8.74961 16.5V15C7.68264 14.8621 6.67237 14.4398 5.82461 13.7775Z" fill="#ADB1B8"/>
</svg>
