<svg width="18" height="18" viewBox="0 0 18 18" fill="none" xmlns="http://www.w3.org/2000/svg">
<path d="M15.75 6C14.625 6 14.025 7.05 14.325 7.875L11.625 10.575C11.4 10.5 11.1 10.5 10.875 10.575L8.925 8.625C9.225 7.8 8.625 6.75 7.5 6.75C6.45 6.75 5.775 7.8 6.075 8.625L2.625 12C1.8 11.775 0.75 12.375 0.75 13.5C0.75 14.325 1.425 15 2.25 15C3.3 15 3.975 13.95 3.675 13.125L7.05 9.675C7.275 9.75 7.575 9.75 7.8 9.675L9.75 11.625C9.525 12.375 10.125 13.5 11.25 13.5C12.375 13.5 12.975 12.45 12.675 11.625L15.375 8.925C16.2 9.15 17.25 8.55 17.25 7.5C17.25 6.675 16.575 6 15.75 6ZM11.25 6.75L11.925 5.175L13.5 4.5L11.925 3.825L11.25 2.25L10.575 3.825L9 4.5L10.575 5.175L11.25 6.75ZM2.625 8.25L3 6.75L4.5 6.375L3 6L2.625 4.5L2.25 6L0.75 6.375L2.25 6.75L2.625 8.25Z" fill="white"/>
</svg>
