<svg width="19" height="18" viewBox="0 0 19 18" fill="none" xmlns="http://www.w3.org/2000/svg">
<path d="M7.92493 7.41531C8.36846 6.98844 8.9601 6.74998 9.57568 6.74998C10.1913 6.74998 10.7829 6.98844 11.2264 7.41531C11.37 7.54741 11.5594 7.61836 11.7545 7.61309C11.9495 7.60782 12.1348 7.52675 12.2711 7.38708C12.4073 7.24742 12.4838 7.06016 12.4842 6.86505C12.4847 6.66993 12.409 6.48233 12.2734 6.34206C10.7809 4.88631 8.36893 4.88631 6.87718 6.34206C6.52063 6.68685 6.23708 7.09986 6.04344 7.55649C5.84979 8.01313 5.75 8.50406 5.75 9.00006C5.75 9.49606 5.84979 9.98698 6.04344 10.4436C6.23708 10.9003 6.52063 11.3133 6.87718 11.6581C8.36968 13.1138 10.7817 13.1138 12.2734 11.6581C12.409 11.5178 12.4847 11.3302 12.4842 11.1351C12.4838 10.94 12.4073 10.7527 12.2711 10.613C12.1348 10.4734 11.9495 10.3923 11.7545 10.387C11.5594 10.3818 11.37 10.4527 11.2264 10.5848C10.7829 11.0119 10.1911 11.2505 9.57531 11.2505C8.95955 11.2505 8.36775 11.0119 7.92418 10.5848C7.71071 10.3797 7.54087 10.1337 7.42486 9.86134C7.30884 9.58902 7.24904 9.29606 7.24904 9.00006C7.24904 8.70405 7.30884 8.41109 7.42486 8.13877C7.54087 7.86645 7.71146 7.62037 7.92493 7.41531Z" fill="#ADB1B8"/>
<path d="M10.5381 1.85259C9.86345 1.63345 9.13675 1.63345 8.4621 1.85259C7.93185 2.02434 7.4796 2.37234 6.95685 2.85984C6.24285 2.88534 5.6766 2.95884 5.17935 3.21234C4.54757 3.53422 4.03381 4.04772 3.7116 4.67934C3.45885 5.17659 3.38535 5.74284 3.35985 6.45684C2.87235 6.97959 2.52435 7.43184 2.35185 7.96209C2.13272 8.63674 2.13272 9.36344 2.35185 10.0381C2.52435 10.5683 2.87235 11.0206 3.35985 11.5433C3.38535 12.2573 3.45885 12.8236 3.71235 13.3208C4.03424 13.9526 4.54773 14.4664 5.17935 14.7886C5.6766 15.0413 6.24285 15.1148 6.95685 15.1403C7.4796 15.6278 7.93185 15.9758 8.4621 16.1483C9.1371 16.3673 9.8631 16.3673 10.5381 16.1483C11.0684 15.9758 11.5206 15.6278 12.0434 15.1403C12.7574 15.1148 13.3236 15.0413 13.8209 14.7878C14.4526 14.466 14.9664 13.9525 15.2886 13.3208C15.5414 12.8236 15.6149 12.2573 15.6404 11.5433C16.1279 11.0206 16.4759 10.5683 16.6484 10.0381C16.8674 9.36309 16.8674 8.63709 16.6484 7.96209C16.4759 7.43184 16.1279 6.97959 15.6404 6.45684C15.6149 5.74284 15.5414 5.17659 15.2879 4.67934C14.966 4.04755 14.4525 3.53379 13.8209 3.21159C13.3236 2.95884 12.7574 2.88534 12.0434 2.85984C11.5206 2.37234 11.0684 2.02509 10.5381 1.85259ZM8.8101 2.92134C9.25859 2.77577 9.74162 2.77577 10.1901 2.92134C10.5081 3.02409 10.8359 3.25959 11.4246 3.82134L11.5821 3.97284L11.7996 3.97734C12.6141 3.99609 13.0124 4.06209 13.3101 4.21359C13.7304 4.42735 14.0721 4.769 14.2859 5.18934C14.4374 5.48709 14.5034 5.88534 14.5221 6.69909L14.5266 6.91659L14.6774 7.07484C15.2399 7.66359 15.4754 7.99134 15.5781 8.30934C15.7237 8.75782 15.7237 9.24085 15.5781 9.68934C15.4754 10.0073 15.2399 10.3351 14.6781 10.9238L14.5266 11.0813L14.5221 11.2988C14.5034 12.1133 14.4374 12.5116 14.2859 12.8093C14.0717 13.2294 13.7301 13.5709 13.3101 13.7851C13.0124 13.9373 12.6141 14.0026 11.8004 14.0213L11.5829 14.0258L11.4246 14.1766C10.8359 14.7391 10.5081 14.9746 10.1901 15.0773C9.74162 15.2229 9.25859 15.2229 8.8101 15.0773C8.4921 14.9746 8.16435 14.7391 7.5756 14.1773L7.4181 14.0258L7.2006 14.0213C6.3861 14.0026 5.98785 13.9366 5.6901 13.7851C5.27047 13.571 4.92922 13.2297 4.7151 12.8101C4.5636 12.5123 4.4976 12.1141 4.47885 11.3003L4.47435 11.0828L4.3236 10.9246C3.7611 10.3358 3.5256 10.0081 3.42285 9.69009C3.27728 9.2416 3.27728 8.75857 3.42285 8.31009C3.5256 7.99209 3.7611 7.66434 4.32285 7.07559L4.47435 6.91809L4.47885 6.70059C4.4976 5.88609 4.5636 5.48784 4.7151 5.19009C4.92922 4.77045 5.27047 4.42921 5.6901 4.21509C5.98785 4.06359 6.3861 3.99759 7.19985 3.97884L7.41735 3.97434L7.5756 3.82359C8.16435 3.26109 8.4921 3.02559 8.8101 2.92284" fill="#ADB1B8"/>
</svg>
