<svg width="19" height="18" viewBox="0 0 19 18" fill="none" xmlns="http://www.w3.org/2000/svg">
<path d="M15.2 15.75L10.475 11.025C10.1 11.325 9.66875 11.5625 9.18125 11.7375C8.69375 11.9125 8.175 12 7.625 12C6.2625 12 5.1095 11.528 4.166 10.584C3.2225 9.64 2.7505 8.487 2.75 7.125C2.7495 5.763 3.2215 4.61 4.166 3.666C5.1105 2.722 6.2635 2.25 7.625 2.25C8.9865 2.25 10.1398 2.722 11.0848 3.666C12.0298 4.61 12.5015 5.763 12.5 7.125C12.5 7.675 12.4125 8.19375 12.2375 8.68125C12.0625 9.16875 11.825 9.6 11.525 9.975L16.25 14.7L15.2 15.75ZM7.625 10.5C8.5625 10.5 9.3595 10.172 10.016 9.516C10.6725 8.86 11.0005 8.063 11 7.125C10.9995 6.187 10.6715 5.39025 10.016 4.73475C9.3605 4.07925 8.5635 3.751 7.625 3.75C6.6865 3.749 5.88975 4.07725 5.23475 4.73475C4.57975 5.39225 4.2515 6.189 4.25 7.125C4.2485 8.061 4.57675 8.858 5.23475 9.516C5.89275 10.174 6.6895 10.502 7.625 10.5Z" fill="#ADB1B8"/>
</svg>
