<svg width="18" height="18" viewBox="0 0 18 18" fill="none" xmlns="http://www.w3.org/2000/svg">
<path d="M8.99952 1.5C7.60713 1.5 6.27178 2.05312 5.28721 3.03769C4.30264 4.02226 3.74952 5.35761 3.74952 6.75V9.396C3.74963 9.51235 3.72267 9.62712 3.67077 9.73125L2.38302 12.306C2.32012 12.4318 2.29041 12.5716 2.29673 12.7121C2.30305 12.8526 2.34518 12.9891 2.41913 13.1088C2.49307 13.2284 2.59637 13.3271 2.71922 13.3956C2.84207 13.4641 2.98038 13.5 3.12102 13.5H14.878C15.0187 13.5 15.157 13.4641 15.2798 13.3956C15.4027 13.3271 15.506 13.2284 15.5799 13.1088C15.6539 12.9891 15.696 12.8526 15.7023 12.7121C15.7086 12.5716 15.6789 12.4318 15.616 12.306L14.329 9.73125C14.2769 9.62718 14.2496 9.51241 14.2495 9.396V6.75C14.2495 5.35761 13.6964 4.02226 12.7118 3.03769C11.7273 2.05312 10.3919 1.5 8.99952 1.5ZM8.99952 15.75C8.53403 15.7502 8.07993 15.6061 7.69978 15.3375C7.31964 15.0688 7.03218 14.6889 6.87702 14.25H11.122C10.9669 14.6889 10.6794 15.0688 10.2993 15.3375C9.91912 15.6061 9.46501 15.7502 8.99952 15.75Z" fill="#474B52"/>
</svg>
