<svg width="13" height="12" viewBox="0 0 13 12" fill="none" xmlns="http://www.w3.org/2000/svg">
<g clip-path="url(#clip0_120_841)">
<path d="M6.49983 9.97961H12.0713M6.49983 9.97961C6.49983 10.1364 6.46895 10.2917 6.40895 10.4365C6.34894 10.5814 6.26099 10.713 6.15012 10.8239C6.03925 10.9348 5.90762 11.0227 5.76276 11.0827C5.6179 11.1427 5.46263 11.1736 5.30583 11.1736C5.14904 11.1736 4.99377 11.1427 4.84891 11.0827C4.70405 11.0227 4.57242 10.9348 4.46155 10.8239C4.35068 10.713 4.26273 10.5814 4.20272 10.4365C4.14272 10.2917 4.11184 10.1364 4.11184 9.97961C4.11184 9.82281 4.14272 9.66755 4.20272 9.52269C4.26273 9.37782 4.35068 9.2462 4.46155 9.13532C4.57242 9.02445 4.70405 8.9365 4.84891 8.8765C4.99377 8.81649 5.14904 8.78561 5.30583 8.78561C5.46263 8.78561 5.6179 8.81649 5.76276 8.8765C5.90762 8.9365 6.03925 9.02445 6.15012 9.13532C6.26099 9.2462 6.34894 9.37782 6.40895 9.52269C6.46895 9.66755 6.49983 9.82281 6.49983 9.97961ZM12.0713 9.97961L10.4795 8.3879M12.0713 9.97961L10.4795 11.5713M3.31641 1.62247C3.31641 1.93914 3.4422 2.24283 3.66612 2.46675C3.89004 2.69067 4.19374 2.81647 4.51041 2.81647C4.82707 2.81647 5.13077 2.69067 5.35469 2.46675C5.57861 2.24283 5.70441 1.93914 5.70441 1.62247C5.70441 1.3058 5.57861 1.0021 5.35469 0.778181C5.13077 0.554263 4.82707 0.428467 4.51041 0.428467C4.19374 0.428467 3.89004 0.554263 3.66612 0.778181C3.4422 1.0021 3.31641 1.3058 3.31641 1.62247ZM6.49983 5.60218C6.49983 5.91885 6.62563 6.22255 6.84955 6.44647C7.07347 6.67038 7.37717 6.79618 7.69383 6.79618C8.0105 6.79618 8.3142 6.67038 8.53812 6.44647C8.76204 6.22255 8.88783 5.91885 8.88783 5.60218C8.88783 5.28551 8.76204 4.98181 8.53812 4.7579C8.3142 4.53398 8.0105 4.40818 7.69383 4.40818C7.37717 4.40818 7.07347 4.53398 6.84955 4.7579C6.62563 4.98181 6.49983 5.28551 6.49983 5.60218Z" stroke="#ADB1B8" stroke-linecap="round" stroke-linejoin="round"/>
<path d="M6.50014 5.60227H3.11785C2.54487 5.61361 1.99918 5.84919 1.59797 6.25842C1.19676 6.66765 0.972026 7.21789 0.972026 7.79099C0.972026 8.36408 1.19676 8.91433 1.59797 9.32356C1.99918 9.73278 2.54487 9.96836 3.11785 9.9797H4.11214M8.88814 5.60227H10.0821C10.6099 5.60227 11.116 5.39263 11.4892 5.01946C11.8624 4.64629 12.072 4.14016 12.072 3.61242C12.072 3.08467 11.8624 2.57854 11.4892 2.20537C11.116 1.8322 10.6099 1.62256 10.0821 1.62256H5.703M3.31671 1.62256H0.928711" stroke="#ADB1B8" stroke-linecap="round" stroke-linejoin="round"/>
</g>
<defs>
<clipPath id="clip0_120_841">
<rect width="12" height="12" fill="white" transform="translate(0.5)"/>
</clipPath>
</defs>
</svg>
