<svg width="52" height="52" viewBox="0 0 52 52" fill="none" xmlns="http://www.w3.org/2000/svg">
<g filter="url(#filter0_d_40_21)">
<rect y="2.75" width="52" height="48.5" rx="12" fill="url(#paint0_linear_40_21)"/>
<path fill-rule="evenodd" clip-rule="evenodd" d="M17.25 14.75C14.345 14.75 12 17.095 12 20V34C12 36.905 14.345 39.25 17.25 39.25H34.75C37.655 39.25 40 36.905 40 34V20C40 17.095 37.655 14.75 34.75 14.75H17.25ZM34.75 16.5H17.25C15.325 16.5 13.75 18.0662 13.75 20V30.5H38.25V20C38.25 18.075 36.6838 16.5 34.75 16.5ZM13.75 34V32.25H38.25V34C38.25 35.925 36.6838 37.5 34.75 37.5H17.25C15.325 37.5 13.75 35.9338 13.75 34Z" fill="white"/>
</g>
<defs>
<filter id="filter0_d_40_21" x="0" y="0.75" width="52" height="50.5" filterUnits="userSpaceOnUse" color-interpolation-filters="sRGB">
<feFlood flood-opacity="0" result="BackgroundImageFix"/>
<feColorMatrix in="SourceAlpha" type="matrix" values="0 0 0 0 0 0 0 0 0 0 0 0 0 0 0 0 0 0 127 0" result="hardAlpha"/>
<feOffset dy="-2"/>
<feComposite in2="hardAlpha" operator="out"/>
<feColorMatrix type="matrix" values="0 0 0 0 0.3175 0 0 0 0 0.3175 0 0 0 0 0.3175 0 0 0 1 0"/>
<feBlend mode="normal" in2="BackgroundImageFix" result="effect1_dropShadow_40_21"/>
<feBlend mode="normal" in="SourceGraphic" in2="effect1_dropShadow_40_21" result="shape"/>
</filter>
<linearGradient id="paint0_linear_40_21" x1="26" y1="51.25" x2="26" y2="2.75" gradientUnits="userSpaceOnUse">
<stop stop-color="#1F1F1F"/>
<stop offset="1" stop-color="#353535"/>
</linearGradient>
</defs>
</svg>
