<svg width="52" height="53" viewBox="0 0 52 53" fill="none" xmlns="http://www.w3.org/2000/svg">
<g filter="url(#filter0_d_40_15)">
<rect x="0.666992" y="2.83301" width="50.666" height="49.3336" rx="12" fill="url(#paint0_linear_40_15)"/>
<path d="M28.8933 39.3536C34.472 38.9842 38.9146 34.4776 39.28 28.8202C39.3506 27.7136 39.3506 26.5669 39.28 25.4602C38.9146 19.8042 34.472 15.3002 28.8933 14.9282C26.9665 14.8013 25.0334 14.8013 23.1066 14.9282C17.528 15.2989 13.0853 19.8042 12.72 25.4616C12.6493 26.5805 12.6493 27.7027 12.72 28.8216C12.8533 30.8816 13.764 32.7896 14.8373 34.4002C15.46 35.5269 15.0493 36.9336 14.4 38.1642C13.9333 39.0509 13.6986 39.4936 13.8866 39.8136C14.0733 40.1336 14.4933 40.1442 15.332 40.1642C16.992 40.2042 18.1106 39.7349 18.9986 39.0802C19.5013 38.7082 19.7533 38.5229 19.9266 38.5016C20.1 38.4802 20.4426 38.6216 21.1253 38.9016C21.7386 39.1549 22.452 39.3109 23.1053 39.3549C25.0053 39.4802 26.9906 39.4802 28.8946 39.3549" stroke="white" stroke-width="1.5" stroke-linecap="round" stroke-linejoin="round"/>
<path d="M20 31.5L22.456 24.132C22.5176 23.9481 22.6355 23.7883 22.7929 23.675C22.9504 23.5618 23.1394 23.5008 23.3333 23.5008C23.5273 23.5008 23.7163 23.5618 23.8737 23.675C24.0312 23.7883 24.149 23.9481 24.2107 24.132L26.6667 31.5M30.6667 23.5V31.5M21.3333 28.8333H25.3333" stroke="white" stroke-width="1.5" stroke-linecap="round" stroke-linejoin="round"/>
</g>
<defs>
<filter id="filter0_d_40_15" x="0.666992" y="0.833008" width="50.666" height="51.3335" filterUnits="userSpaceOnUse" color-interpolation-filters="sRGB">
<feFlood flood-opacity="0" result="BackgroundImageFix"/>
<feColorMatrix in="SourceAlpha" type="matrix" values="0 0 0 0 0 0 0 0 0 0 0 0 0 0 0 0 0 0 127 0" result="hardAlpha"/>
<feOffset dy="-2"/>
<feComposite in2="hardAlpha" operator="out"/>
<feColorMatrix type="matrix" values="0 0 0 0 0.3175 0 0 0 0 0.3175 0 0 0 0 0.3175 0 0 0 1 0"/>
<feBlend mode="normal" in2="BackgroundImageFix" result="effect1_dropShadow_40_15"/>
<feBlend mode="normal" in="SourceGraphic" in2="effect1_dropShadow_40_15" result="shape"/>
</filter>
<linearGradient id="paint0_linear_40_15" x1="26" y1="52.1666" x2="26" y2="2.83301" gradientUnits="userSpaceOnUse">
<stop stop-color="#1F1F1F"/>
<stop offset="1" stop-color="#353535"/>
</linearGradient>
</defs>
</svg>
